# 3ds Max Wavefront OBJ Exporter v0.99 - (c)2007 guruware
# File Created: 31.05.2021 10:15:47

mtllib personagem 2 obj.mtl

#
# object toby
#

v  -4.1095 0.6641 3.3495
v  -4.8977 1.4671 2.6534
v  -3.8992 1.4671 2.0064
v  -3.8992 0.6641 2.8998
v  -4.0065 0.6641 4.5314
v  -3.8992 0.6641 4.9610
v  -3.8992 1.4671 5.8543
v  -4.9395 1.4671 5.3833
v  -3.8992 0.5884 3.5594
v  -4.2495 0.6641 3.5492
v  -4.5083 6.8858 3.2032
v  -4.7908 6.1870 2.7312
v  -5.4284 6.1870 3.4867
v  -4.7051 6.8858 3.5957
v  -5.8596 3.8762 2.1572
v  -5.6183 4.9041 2.3214
v  -3.8992 4.9041 1.6745
v  -3.8992 3.8762 1.5103
v  -5.5936 2.2701 2.4423
v  -6.2312 2.2701 3.3827
v  -6.4972 3.8762 3.2801
v  -5.3578 5.4822 2.4138
v  -6.2559 4.9041 3.3392
v  -5.9953 5.4822 3.3725
v  -5.1622 5.7254 2.5233
v  -3.8992 5.7254 1.8763
v  -3.8992 5.4822 1.7668
v  -3.8992 2.2701 1.7953
v  -5.5353 1.4671 3.4587
v  -5.7998 5.7254 3.4119
v  -3.8992 6.8858 2.8970
v  -3.8992 6.1870 2.0842
v  -3.8992 7.1377 3.6026
v  -3.8992 5.4927 6.0939
v  -4.2644 5.4822 5.9919
v  -5.3996 5.4822 5.5816
v  -5.6601 4.9041 5.7912
v  -3.8992 4.9041 6.2622
v  -3.8992 3.8762 6.3505
v  -5.9014 3.8762 5.8795
v  -5.6354 2.2701 5.5944
v  -3.8992 2.2701 6.0654
v  -3.8992 6.8858 4.9747
v  -4.4935 6.8858 4.7646
v  -4.7122 6.3990 5.3055
v  -4.4622 6.3990 5.5345
v  -4.1291 6.3990 5.6777
v  -3.8992 6.3990 5.7765
v  -3.8992 0.5459 3.9304
v  -3.8992 0.5884 4.3014
v  -4.2124 0.6641 4.3058
v  -4.3283 0.6641 3.9304
v  -5.5994 6.1870 3.9304
v  -5.4253 6.1870 4.4403
v  -4.6998 6.8858 4.3049
v  -4.7636 6.9273 4.1066
v  -4.5569 7.0718 3.9304
v  -6.4021 2.2701 3.9304
v  -6.1932 2.2701 4.5443
v  -6.4592 3.8762 4.6469
v  -6.6681 3.8762 3.9304
v  -5.7062 1.4671 3.9304
v  -5.4973 1.4671 4.4683
v  -6.1663 5.4822 3.9304
v  -5.9574 5.4822 4.5397
v  -5.7738 5.7254 4.5054
v  -5.9707 5.7254 3.9304
v  -6.2179 4.9041 4.5878
v  -5.1624 5.7985 5.4863
v  -3.8992 7.1391 4.3104
v  -6.4268 4.9041 3.9304
v  -4.7542 6.9219 3.7493
v  -3.9678 0.2325 3.2223
v  -4.0466 0.2325 3.9466
v  -5.3292 0.2349 3.9466
v  -5.4436 0.2354 3.1615
v  -7.7072 3.8170 3.6538
v  -7.7657 3.8170 3.9655
v  -7.8618 4.2937 3.9655
v  -7.8032 4.2937 3.6837
v  -6.8625 3.9403 4.6697
v  -7.2658 3.8333 4.5831
v  -7.3507 3.8333 3.9538
v  -7.0094 3.9403 3.9421
v  -6.7337 4.8731 4.6096
v  -7.2495 4.6836 4.5316
v  -6.8806 4.8731 3.9421
v  -7.3343 4.6836 3.9538
v  -6.7717 4.8731 3.3409
v  -7.2875 4.6836 3.4423
v  -6.9005 3.9403 3.2808
v  -7.3038 3.8333 3.3908
v  -7.6692 3.8170 4.3435
v  -7.7653 4.2937 4.3137
v  -3.9307 0.2325 5.5726
v  -4.7016 0.2320 5.8537
v  -6.3375 0.2368 3.9466
v  -5.9422 0.2368 5.5251
v  -5.8328 0.2368 3.1649
v  -3.8992 7.1981 3.9304
v  -4.4014 7.0609 3.9304
v  -5.1895 7.9410 3.9281
v  -3.8992 5.5931 6.0920
v  -3.8992 5.7985 5.9844
v  -4.1286 5.7985 5.8794
v  -4.5080 5.8103 5.7641
v  -4.4855 6.4162 5.5870
v  -4.1524 6.4162 5.7302
v  -4.5313 5.8276 5.8166
v  -4.1519 5.8158 5.9319
v  -4.3419 6.1332 5.8097
v  -3.8992 5.5429 5.9935
v  -4.2644 5.4822 5.8925
v  -3.6890 0.6641 3.3495
v  -2.9007 1.4671 2.6534
v  -3.7920 0.6641 4.5314
v  -2.8589 1.4671 5.3833
v  -3.5489 0.6641 3.5492
v  -3.2902 6.8858 3.2032
v  -3.0934 6.8858 3.5957
v  -2.3700 6.1870 3.4867
v  -3.0076 6.1870 2.7312
v  -1.9389 3.8762 2.1572
v  -2.1802 4.9041 2.3214
v  -1.3013 3.8762 3.2801
v  -1.5672 2.2701 3.3827
v  -2.2048 2.2701 2.4423
v  -2.4407 5.4822 2.4138
v  -1.8031 5.4822 3.3725
v  -1.5426 4.9041 3.3392
v  -2.6363 5.7254 2.5233
v  -2.2631 1.4671 3.4587
v  -1.9987 5.7254 3.4119
v  -2.1384 4.9041 5.7912
v  -2.3989 5.4822 5.5816
v  -3.5341 5.4822 5.9919
v  -2.1630 2.2701 5.5944
v  -1.8971 3.8762 5.8795
v  -3.6694 6.3990 5.6777
v  -3.3362 6.3990 5.5345
v  -3.0863 6.3990 5.3055
v  -3.3050 6.8858 4.7646
v  -3.4702 0.6641 3.9304
v  -3.5860 0.6641 4.3058
v  -2.1991 6.1870 3.9304
v  -3.2416 7.0718 3.9304
v  -3.0349 6.9273 4.1066
v  -3.0987 6.8858 4.3049
v  -2.3732 6.1870 4.4403
v  -1.3963 2.2701 3.9304
v  -1.1304 3.8762 3.9304
v  -1.3393 3.8762 4.6469
v  -1.6052 2.2701 4.5443
v  -2.0922 1.4671 3.9304
v  -2.3011 1.4671 4.4683
v  -1.6322 5.4822 3.9304
v  -1.8278 5.7254 3.9304
v  -2.0247 5.7254 4.5054
v  -1.8411 5.4822 4.5397
v  -1.5806 4.9041 4.5878
v  -2.6360 5.7985 5.4863
v  -1.3717 4.9041 3.9304
v  -3.0443 6.9219 3.7493
v  -3.8306 0.2325 3.2223
v  -2.3549 0.2354 3.1615
v  -2.4693 0.2349 3.9466
v  -3.7519 0.2325 3.9466
v  -0.0913 3.8170 3.6538
v  0.0048 4.2937 3.6837
v  0.0633 4.2937 3.9655
v  -0.0328 3.8170 3.9655
v  -0.9359 3.9403 4.6697
v  -0.7891 3.9403 3.9421
v  -0.4478 3.8333 3.9538
v  -0.5326 3.8333 4.5831
v  -1.0648 4.8731 4.6096
v  -0.5490 4.6836 4.5316
v  -0.9179 4.8731 3.9421
v  -0.4641 4.6836 3.9538
v  -1.0268 4.8731 3.3409
v  -0.5110 4.6836 3.4423
v  -0.8980 3.9403 3.2808
v  -0.4946 3.8333 3.3908
v  -0.0332 4.2937 4.3137
v  -0.1293 3.8170 4.3435
v  -3.8677 0.2325 5.5726
v  -3.0968 0.2320 5.8537
v  -1.8563 0.2368 5.5251
v  -1.4610 0.2368 3.9466
v  -1.9656 0.2368 3.1649
v  -3.3971 7.0609 3.9304
v  -2.6090 7.9410 3.9281
v  -3.2905 5.8103 5.7641
v  -3.6698 5.7985 5.8794
v  -3.6461 6.4162 5.7302
v  -3.3129 6.4162 5.5870
v  -3.2672 5.8276 5.8166
v  -3.6465 5.8158 5.9319
v  -3.4565 6.1332 5.8097
v  -3.5341 5.4822 5.8925
# 200 vertices

vn -0.8192 0.3095 -0.4829
vn -0.4705 -0.6983 -0.5395
vn -0.0000 -0.4807 -0.8769
vn -0.0000 -0.8352 -0.5499
vn -0.8402 0.2508 0.4808
vn -0.0000 -0.8280 0.5608
vn -0.0000 -0.4897 0.8719
vn -0.4390 -0.7121 0.5479
vn 0.0000 -0.9935 -0.1139
vn 0.5486 -0.5729 -0.6089
vn -0.3756 0.8588 -0.3485
vn -0.5179 0.6356 -0.5725
vn -0.6511 0.6527 -0.3873
vn -0.4810 0.8232 -0.3016
vn -0.6413 0.0139 -0.7672
vn -0.6066 0.3206 -0.7275
vn -0.0000 0.1577 -0.9875
vn 0.0000 -0.0084 -1.0000
vn -0.5808 -0.4189 -0.6980
vn -0.8241 -0.4109 -0.3899
vn -0.7449 -0.2444 -0.6207
vn -0.5473 0.5102 -0.6635
vn -0.6719 0.4957 -0.5502
vn -0.7776 0.5089 -0.3693
vn -0.4888 0.6535 -0.5779
vn -0.0000 0.4106 -0.9118
vn 0.0000 0.2777 -0.9607
vn 0.0000 -0.2128 -0.9771
vn -0.7046 -0.3650 -0.6085
vn -0.6986 0.6199 -0.3574
vn -0.0000 0.8414 -0.5405
vn 0.0000 0.5620 -0.8271
vn 0.0000 0.9668 -0.2555
vn -0.0000 0.6109 0.7917
vn -0.0369 -0.7883 0.6142
vn -0.5571 0.5383 0.6324
vn -0.5965 0.3425 0.7258
vn -0.0000 0.1783 0.9840
vn 0.0000 -0.0441 0.9990
vn -0.6490 -0.0102 0.7607
vn -0.5876 -0.4168 0.6936
vn -0.0000 -0.2133 0.9770
vn 0.0000 0.8905 0.4549
vn -0.3282 0.8974 0.2950
vn -0.5671 0.6691 0.4804
vn -0.4370 0.8983 0.0457
vn 0.0515 0.8368 0.5451
vn 0.0000 0.5892 0.8080
vn 0.0000 -1.0000 -0.0000
vn -0.0000 -0.9935 0.1139
vn 0.5016 -0.8500 0.1610
vn 0.8482 -0.5287 -0.0329
vn -0.7261 0.6874 -0.0148
vn -0.6884 0.6514 0.3190
vn -0.4816 0.8307 0.2794
vn 0.7621 -0.3172 0.5644
vn -0.9983 -0.0563 -0.0133
vn -0.9139 -0.4057 0.0114
vn -0.8356 -0.4171 0.3575
vn -0.7623 -0.2551 0.5948
vn -0.6593 -0.7518 0.0080
vn -0.9904 -0.1378 0.0114
vn -0.7993 -0.1436 0.5836
vn -0.8588 0.5121 0.0143
vn -0.7918 0.5042 0.3447
vn -0.7312 0.5983 0.3277
vn -0.7792 0.6268 0.0046
vn -0.6943 0.5116 0.5062
vn -0.5348 0.5847 0.6101
vn 0.0000 0.9678 0.2519
vn -0.4990 0.8666 0.0060
vn 0.7838 -0.2939 -0.5471
vn 0.7050 -0.2864 -0.6489
vn 0.8664 -0.4991 0.0150
vn -0.0019 -1.0000 -0.0006
vn 0.0119 -0.6124 -0.7905
vn -0.5781 -0.6904 -0.4350
vn -0.6675 -0.7443 0.0221
vn -0.9417 0.3351 0.0300
vn -0.8106 0.2675 -0.5210
vn -0.0701 -0.5923 0.8027
vn -0.1550 -0.6972 0.7000
vn 0.1617 -0.9868 -0.0042
vn 0.0868 -0.9962 -0.0011
vn -0.1544 0.7131 0.6839
vn -0.4588 0.6081 0.6478
vn -0.2489 0.9685 0.0045
vn -0.5000 0.8659 0.0137
vn -0.1841 0.7148 -0.6747
vn -0.4841 0.6114 -0.6260
vn -0.1177 -0.5896 -0.7991
vn -0.1890 -0.6979 -0.6908
vn -0.5542 -0.6898 0.4659
vn -0.7840 0.2644 0.5616
vn 0.7158 -0.1408 0.6839
vn 0.0986 -0.2980 0.9495
vn -0.8860 -0.4452 -0.1296
vn -0.6279 -0.3278 0.7059
vn -0.4389 -0.4912 -0.7524
vn 0.0000 0.9999 -0.0137
vn -0.0962 0.9952 -0.0173
vn -0.5541 0.8325 -0.0009
vn 0.0000 -0.1663 0.9861
vn -0.0000 0.4041 0.9147
vn 0.2916 0.7373 0.6094
vn -0.5081 -0.7503 0.4230
vn -0.6996 0.7122 0.0576
vn 0.3749 0.7675 0.5199
vn -0.7868 -0.4004 0.4697
vn 0.3389 -0.3872 0.8575
vn -0.3121 0.3358 0.8887
vn 0.0000 -0.1104 0.9939
vn 1.0000 0.0000 -0.0000
vn 0.8192 0.3095 -0.4829
vn 0.4705 -0.6983 -0.5395
vn 0.8402 0.2508 0.4808
vn 0.4390 -0.7121 0.5479
vn -0.5486 -0.5729 -0.6089
vn 0.3756 0.8588 -0.3485
vn 0.4810 0.8232 -0.3016
vn 0.6511 0.6527 -0.3873
vn 0.5179 0.6356 -0.5725
vn 0.6413 0.0139 -0.7672
vn 0.6066 0.3206 -0.7275
vn 0.7449 -0.2444 -0.6207
vn 0.8241 -0.4109 -0.3899
vn 0.5808 -0.4189 -0.6980
vn 0.5473 0.5102 -0.6635
vn 0.7776 0.5089 -0.3693
vn 0.6719 0.4957 -0.5502
vn 0.4888 0.6535 -0.5779
vn 0.7046 -0.3650 -0.6085
vn 0.6986 0.6199 -0.3574
vn 0.5965 0.3425 0.7258
vn 0.5571 0.5383 0.6324
vn 0.0369 -0.7883 0.6142
vn 0.5876 -0.4168 0.6936
vn 0.6490 -0.0102 0.7607
vn 0.0199 0.2321 0.9725
vn 0.4369 0.8983 0.0457
vn 0.5671 0.6691 0.4804
vn 0.3282 0.8974 0.2950
vn -0.8482 -0.5287 -0.0329
vn -0.5016 -0.8500 0.1610
vn 0.7261 0.6874 -0.0148
vn 0.9983 -0.0563 -0.0133
vn -0.7621 -0.3172 0.5644
vn 0.4816 0.8307 0.2794
vn 0.6884 0.6514 0.3190
vn 0.9139 -0.4057 0.0114
vn 0.6593 -0.7518 0.0080
vn 0.7623 -0.2551 0.5948
vn 0.8356 -0.4171 0.3575
vn 0.9904 -0.1378 0.0114
vn 0.7993 -0.1436 0.5836
vn 0.8588 0.5121 0.0143
vn 0.7792 0.6268 0.0046
vn 0.7312 0.5983 0.3277
vn 0.7918 0.5042 0.3447
vn 0.6943 0.5116 0.5062
vn 0.5348 0.5847 0.6101
vn 0.4990 0.8666 0.0060
vn -0.7838 -0.2939 -0.5471
vn -0.7050 -0.2864 -0.6489
vn -0.0119 -0.6124 -0.7905
vn 0.0019 -1.0000 -0.0006
vn -0.8664 -0.4991 0.0150
vn 0.5781 -0.6904 -0.4350
vn 0.8106 0.2675 -0.5210
vn 0.9417 0.3351 0.0300
vn 0.6675 -0.7443 0.0221
vn 0.0701 -0.5923 0.8027
vn -0.0868 -0.9962 -0.0011
vn -0.1617 -0.9868 -0.0042
vn 0.1550 -0.6972 0.7000
vn 0.1544 0.7131 0.6839
vn 0.4588 0.6081 0.6478
vn 0.2489 0.9685 0.0045
vn 0.5000 0.8659 0.0137
vn 0.1841 0.7148 -0.6747
vn 0.4841 0.6114 -0.6260
vn 0.1177 -0.5896 -0.7991
vn 0.1890 -0.6979 -0.6908
vn 0.7840 0.2644 0.5616
vn 0.5542 -0.6898 0.4659
vn -0.7158 -0.1408 0.6839
vn -0.0986 -0.2980 0.9495
vn 0.6279 -0.3278 0.7059
vn 0.8860 -0.4452 -0.1296
vn 0.4389 -0.4912 -0.7524
vn 0.0962 0.9952 -0.0173
vn 0.5541 0.8325 -0.0009
vn 0.5081 -0.7503 0.4230
vn -0.2916 0.7373 0.6094
vn -0.3749 0.7676 0.5199
vn 0.6996 0.7122 0.0576
vn 0.7868 -0.4004 0.4697
vn -0.3389 -0.3872 0.8575
vn 0.3121 0.3358 0.8887
# 199 vertex normals

vt 1.0000 0.0000 0.0000
vt 1.0000 0.1250 0.0000
vt 0.5000 0.1250 0.0000
vt 0.5000 0.0000 0.0000
vt 0.0000 0.0000 0.0000
vt 0.0000 0.1250 0.0000
vt 0.5000 0.3200 0.0000
vt 0.0000 0.3200 0.0000
vt 0.1250 0.0000 0.0000
vt 0.1250 0.3200 0.0000
vt 1.0000 0.5000 0.0000
vt 1.0000 0.6600 0.0000
vt 0.5000 0.6600 0.0000
vt 0.5000 0.5000 0.0000
vt 0.7500 0.0000 0.0000
vt 0.7500 0.3200 0.0000
vt 0.2500 0.0000 0.0000
vt 0.3400 0.0000 0.0000
vt 0.3400 0.3200 0.0000
vt 0.2500 0.3200 0.0000
vt 1.0000 0.7500 0.0000
vt 1.0000 0.7931 0.0000
vt 0.5000 0.7931 0.0000
vt 0.5000 0.7500 0.0000
vt 1.0000 0.2500 0.0000
vt 0.5000 0.2500 0.0000
vt 0.8750 0.0000 0.0000
vt 0.8750 0.3200 0.0000
vt 1.0000 0.3200 0.0000
vt 0.2069 0.0000 0.0000
vt 0.2069 0.3200 0.0000
vt 1.0000 0.8750 0.0000
vt 1.0000 1.0000 0.0000
vt 0.5000 1.0000 0.0000
vt 0.5000 0.8750 0.0000
vt 0.3918 0.7500 0.0000
vt 0.0000 0.7500 0.0000
vt 0.0000 0.6600 0.0000
vt 0.0000 0.5000 0.0000
vt 0.0000 0.2500 0.0000
vt 0.0000 1.0000 0.0000
vt 0.0000 0.8750 0.0000
vt 0.2183 0.8750 0.0000
vt 0.3850 0.8750 0.0000
vt 0.5000 0.6800 0.0000
vt 0.0000 0.6800 0.0000
vt 0.1250 0.5000 0.0000
vt 0.1250 0.6800 0.0000
vt 0.0000 0.5915 0.0000
vt 0.7500 0.5000 0.0000
vt 0.7500 0.6800 0.0000
vt 0.8750 0.5000 0.0000
vt 0.8750 0.6800 0.0000
vt 0.2500 0.5000 0.0000
vt 0.2500 0.6800 0.0000
vt 0.2069 0.6800 0.0000
vt 0.2069 0.5000 0.0000
vt 0.3400 1.0000 0.0000
vt 0.2500 1.0000 0.0000
vt 0.3400 0.6800 0.0000
vt 0.1250 1.0000 0.0000
vt 0.7500 1.0000 0.0000
vt 0.8750 1.0000 0.0000
vt 1.0000 0.6800 0.0000
vt 0.2069 1.0000 0.0000
vt 0.3400 0.5000 0.0000
vt 0.0000 0.3922 0.0000
vt 0.9300 0.5000 0.0000
vt 0.9161 0.3200 0.0000
vt 0.9339 0.6800 0.0000
vt 0.8900 0.5000 0.0000
vt 0.9737 0.5673 0.0000
vt 0.9750 0.4221 0.0000
vt 0.9915 0.5000 0.0000
vt 0.9466 0.4987 0.0000
vt 0.0000 0.7931 0.0000
vt 0.5000 0.7713 0.0000
vt 0.3850 0.7931 0.0000
vt 0.2183 0.7931 0.0000
vt 0.3017 0.8341 0.0000
# 80 texture coords

o toby
g toby
usemtl Solid_Glass
s 3
f 1/1/1 2/2/2 3/3/3 4/4/4 
s 5
f 5/5/5 6/4/6 7/3/7 8/6/8 
s 9
f 1/5/1 4/4/4 9/7/9 10/8/10 
s 65
f 11/5/11 12/9/12 13/10/13 14/8/14 
s 3
f 15/11/15 16/12/16 17/13/17 18/14/18 
s 65
f 15/4/15 19/15/19 20/16/20 21/7/21 
f 22/17/22 16/18/16 23/19/23 24/20/24 
s 3
f 22/21/22 25/22/25 26/23/26 27/24/27 
f 19/25/19 15/11/15 18/14/18 28/26/28 
s 65
f 19/15/19 2/27/2 29/28/29 20/16/20 
s 3
f 2/2/2 19/25/19 28/26/28 3/3/3 
s 65
f 2/27/2 1/1/1 10/29/10 29/28/29 
f 12/9/12 25/30/25 30/31/30 13/10/13 
s 3
f 12/32/12 11/33/11 31/34/31 32/35/32 
s 33
f 11/1/11 14/29/14 33/7/33 31/4/31 
s 5
f 34/24/34 35/36/35 36/37/36 37/38/37 38/13/38 
f 39/14/39 40/39/40 41/40/41 42/26/42 
f 42/26/42 41/40/41 8/6/8 7/3/7 
f 43/34/43 44/41/44 45/42/45 46/43/46 47/44/47 48/35/48 
s 9
f 49/14/49 50/45/50 51/46/51 52/39/52 
s 65
f 53/47/53 54/48/54 55/46/55 56/49/56 57/39/57 
f 58/50/58 59/51/59 60/45/60 61/14/61 
f 62/52/62 63/53/63 59/51/59 58/50/58 
f 64/54/64 65/55/65 66/56/66 67/57/67 
s 3
f 16/12/16 22/21/22 27/24/27 17/13/17 
s 65
f 16/18/16 15/4/15 21/7/21 23/19/23 
s 5
f 37/38/37 40/39/40 39/14/39 38/13/38 
s 65
f 37/58/37 36/59/36 65/55/65 68/60/68 
s 9
f 50/45/50 6/34/6 5/41/5 51/46/51 
s 65
f 54/48/54 45/61/45 44/41/44 55/46/55 
f 59/51/59 41/62/41 40/34/40 60/45/60 
f 60/45/60 40/34/40 37/58/37 68/60/68 
f 63/53/63 8/63/8 41/62/41 59/51/59 
f 51/64/51 5/33/5 8/63/8 63/53/63 
f 65/55/65 36/59/36 69/65/69 66/56/66 
s 33
f 55/64/55 44/33/44 43/34/43 70/45/70 
s 65
f 65/55/65 64/54/64 71/66/71 68/60/68 
s 9
f 9/7/9 49/14/49 52/39/52 10/8/10 
s 65
f 13/10/13 53/47/53 57/39/57 72/67/72 14/8/14 
f 20/16/20 58/50/58 61/14/61 21/7/21 
f 23/19/23 71/66/71 64/54/64 24/20/24 
f 29/28/29 62/52/62 58/50/58 20/16/20 
s 80
f 73/29/73 74/11/74 75/68/75 76/69/76 
s 65
f 24/20/24 64/54/64 67/57/67 30/31/30 
f 77/7/77 78/14/78 79/66/79 80/19/80 
s 1
f 81/45/81 82/45/82 83/14/83 84/14/84 
f 85/60/85 86/60/86 82/45/82 81/45/81 
f 87/66/87 88/66/88 86/60/86 85/60/85 
f 89/19/89 90/19/90 88/66/88 87/66/87 
f 91/7/91 92/7/92 90/19/90 89/19/89 
f 84/14/84 83/14/83 92/7/92 91/7/91 
s 65
f 78/14/78 93/45/93 94/60/94 79/66/79 
s 1
f 82/45/82 93/45/93 78/14/78 83/14/83 
f 84/14/84 61/14/61 60/45/60 81/45/81 
f 86/60/86 94/60/94 93/45/93 82/45/82 
f 81/45/81 60/45/60 68/60/68 85/60/85 
f 88/66/88 79/66/79 94/60/94 86/60/86 
f 85/60/85 68/60/68 71/66/71 87/66/87 
f 90/19/90 80/19/80 79/66/79 88/66/88 
f 87/66/87 71/66/71 23/19/23 89/19/89 
f 92/7/92 77/7/77 80/19/80 90/19/90 
f 89/19/89 23/19/23 21/7/21 91/7/91 
f 83/14/83 78/14/78 77/7/77 92/7/92 
f 91/7/91 21/7/21 61/14/61 84/14/84 
s 16
f 10/29/10 52/11/52 74/11/74 73/29/73 
f 52/11/52 51/64/51 95/64/95 74/11/74 
f 51/64/51 63/53/63 96/70/96 95/64/95 
f 63/53/63 62/52/62 97/52/97 98/53/98 
f 62/52/62 29/28/29 99/28/99 97/52/97 
f 29/28/29 76/69/76 99/28/99 
s 80
f 74/11/74 95/64/95 96/70/96 75/68/75 
s 33
f 55/64/55 70/45/70 100/14/100 101/71/101 56/72/56 
f 72/73/72 101/71/101 100/14/100 33/7/33 14/29/14 
s 2
f 57/74/57 56/72/56 102/75/102 
s 1
f 56/72/56 101/71/101 102/75/102 
f 101/71/101 72/73/72 102/75/102 
s 2
f 72/73/72 57/74/57 102/75/102 
s 16
f 63/53/63 98/53/98 96/70/96 
f 29/28/29 10/29/10 73/29/73 76/69/76 
s 80
f 96/70/96 98/53/98 97/52/97 75/68/75 
f 75/68/75 97/52/97 99/28/99 76/69/76 
s 3
f 25/22/25 12/32/12 32/35/32 26/23/26 
s 65
f 25/30/25 22/17/22 24/20/24 30/31/30 
s 5
f 69/76/69 36/37/36 35/36/35 103/77/103 104/23/104 105/78/105 106/79/106 
s 65
f 66/56/66 54/48/54 53/47/53 67/57/67 
f 69/65/69 45/61/45 54/48/54 66/56/66 
f 67/57/67 53/47/53 13/10/13 30/31/30 
s 5
f 46/43/46 45/42/45 69/76/69 106/79/106 
f 105/78/105 104/23/104 48/35/48 47/44/47 
s 4
f 47/44/47 46/43/46 107/43/107 108/44/108 
f 46/43/46 106/79/106 109/79/109 107/43/107 
f 106/79/106 105/78/105 110/78/110 109/79/109 
f 105/78/105 47/44/47 108/44/108 110/78/110 
f 108/44/108 107/43/107 111/80/111 
f 107/43/107 109/79/109 111/80/111 
f 109/79/109 110/78/110 111/80/111 
f 110/78/110 108/44/108 111/80/111 
s 8
f 35/36/35 34/24/34 112/24/112 113/36/113 
f 103/77/103 35/36/35 113/36/113 112/77/112 
s 3
f 114/1/114 4/4/4 3/3/3 115/2/115 
s 5
f 116/5/116 117/6/117 7/3/7 6/4/6 
s 9
f 114/5/114 118/8/118 9/7/9 4/4/4 
s 65
f 119/5/119 120/8/120 121/10/121 122/9/122 
s 3
f 123/11/123 18/14/18 17/13/17 124/12/124 
s 65
f 123/4/123 125/7/125 126/16/126 127/15/127 
f 128/17/128 129/20/129 130/19/130 124/18/124 
s 3
f 128/21/128 27/24/27 26/23/26 131/22/131 
f 127/25/127 28/26/28 18/14/18 123/11/123 
s 65
f 127/15/127 126/16/126 132/28/132 115/27/115 
s 3
f 115/2/115 3/3/3 28/26/28 127/25/127 
s 65
f 115/27/115 132/28/132 118/29/118 114/1/114 
f 122/9/122 121/10/121 133/31/133 131/30/131 
s 3
f 122/32/122 32/35/32 31/34/31 119/33/119 
s 33
f 119/1/119 31/4/31 33/7/33 120/29/120 
s 5
f 34/24/34 38/13/38 134/38/134 135/37/135 136/36/136 
f 39/14/39 42/26/42 137/40/137 138/39/138 
f 42/26/42 7/3/7 117/6/117 137/40/137 
f 43/34/43 48/35/48 139/44/139 140/43/140 141/42/141 142/41/142 
s 9
f 49/14/49 143/39/143 144/46/144 50/45/50 
s 65
f 145/47/145 146/39/146 147/49/147 148/46/148 149/48/149 
f 150/50/150 151/14/151 152/45/152 153/51/153 
f 154/52/154 150/50/150 153/51/153 155/53/155 
f 156/54/156 157/57/157 158/56/158 159/55/159 
s 3
f 124/12/124 17/13/17 27/24/27 128/21/128 
s 65
f 124/18/124 130/19/130 125/7/125 123/4/123 
s 5
f 134/38/134 38/13/38 39/14/39 138/39/138 
s 65
f 134/58/134 160/60/160 159/55/159 135/59/135 
s 9
f 50/45/50 144/46/144 116/41/116 6/34/6 
s 65
f 149/48/149 148/46/148 142/41/142 141/61/141 
f 153/51/153 152/45/152 138/34/138 137/62/137 
f 152/45/152 160/60/160 134/58/134 138/34/138 
f 155/53/155 153/51/153 137/62/137 117/63/117 
f 144/64/144 155/53/155 117/63/117 116/33/116 
f 159/55/159 158/56/158 161/65/161 135/59/135 
s 33
f 148/64/148 70/45/70 43/34/43 142/33/142 
s 65
f 159/55/159 160/60/160 162/66/162 156/54/156 
s 9
f 9/7/9 118/8/118 143/39/143 49/14/49 
s 65
f 121/10/121 120/8/120 163/67/163 146/39/146 145/47/145 
f 126/16/126 125/7/125 151/14/151 150/50/150 
f 130/19/130 129/20/129 156/54/156 162/66/162 
f 132/28/132 126/16/126 150/50/150 154/52/154 
s 80
f 164/29/164 165/69/165 166/68/166 167/11/167 
s 65
f 129/20/129 133/31/133 157/57/157 156/54/156 
f 168/7/168 169/19/169 170/66/170 171/14/171 
s 1
f 172/45/172 173/14/173 174/14/174 175/45/175 
f 176/60/176 172/45/172 175/45/175 177/60/177 
f 178/66/178 176/60/176 177/60/177 179/66/179 
f 180/19/180 178/66/178 179/66/179 181/19/181 
f 182/7/182 180/19/180 181/19/181 183/7/183 
f 173/14/173 182/7/182 183/7/183 174/14/174 
s 65
f 171/14/171 170/66/170 184/60/184 185/45/185 
s 1
f 175/45/175 174/14/174 171/14/171 185/45/185 
f 173/14/173 172/45/172 152/45/152 151/14/151 
f 177/60/177 175/45/175 185/45/185 184/60/184 
f 172/45/172 176/60/176 160/60/160 152/45/152 
f 179/66/179 177/60/177 184/60/184 170/66/170 
f 176/60/176 178/66/178 162/66/162 160/60/160 
f 181/19/181 179/66/179 170/66/170 169/19/169 
f 178/66/178 180/19/180 130/19/130 162/66/162 
f 183/7/183 181/19/181 169/19/169 168/7/168 
f 180/19/180 182/7/182 125/7/125 130/19/130 
f 174/14/174 183/7/183 168/7/168 171/14/171 
f 182/7/182 173/14/173 151/14/151 125/7/125 
s 16
f 118/29/118 164/29/164 167/11/167 143/11/143 
f 143/11/143 167/11/167 186/64/186 144/64/144 
f 144/64/144 186/64/186 187/70/187 155/53/155 
f 155/53/155 188/53/188 189/52/189 154/52/154 
f 154/52/154 189/52/189 190/28/190 132/28/132 
f 132/28/132 190/28/190 165/69/165 
s 80
f 167/11/167 166/68/166 187/70/187 186/64/186 
s 33
f 148/64/148 147/72/147 191/71/191 100/14/100 70/45/70 
f 163/73/163 120/29/120 33/7/33 100/14/100 191/71/191 
s 2
f 146/74/146 192/75/192 147/72/147 
s 1
f 147/72/147 192/75/192 191/71/191 
f 191/71/191 192/75/192 163/73/163 
s 2
f 163/73/163 192/75/192 146/74/146 
s 16
f 155/53/155 187/70/187 188/53/188 
f 132/28/132 165/69/165 164/29/164 118/29/118 
s 80
f 187/70/187 166/68/166 189/52/189 188/53/188 
f 166/68/166 165/69/165 190/28/190 189/52/189 
s 3
f 131/22/131 26/23/26 32/35/32 122/32/122 
s 65
f 131/30/131 133/31/133 129/20/129 128/17/128 
s 5
f 161/76/161 193/79/193 194/78/194 104/23/104 103/77/103 136/36/136 135/37/135 
s 65
f 158/56/158 157/57/157 145/47/145 149/48/149 
f 161/65/161 158/56/158 149/48/149 141/61/141 
f 157/57/157 133/31/133 121/10/121 145/47/145 
s 5
f 140/43/140 193/79/193 161/76/161 141/42/141 
f 194/78/194 139/44/139 48/35/48 104/23/104 
s 4
f 139/44/139 195/44/195 196/43/196 140/43/140 
f 140/43/140 196/43/196 197/79/197 193/79/193 
f 193/79/193 197/79/197 198/78/198 194/78/194 
f 194/78/194 198/78/198 195/44/195 139/44/139 
f 195/44/195 199/80/199 196/43/196 
f 196/43/196 199/80/199 197/79/197 
f 197/79/197 199/80/199 198/78/198 
f 198/78/198 199/80/199 195/44/195 
s 8
f 136/36/136 200/36/113 112/24/112 34/24/34 
f 103/77/103 112/77/112 200/36/113 136/36/136 
# 178 polygons - 20 triangles

